# File created by Blade
# Date/Time:  Wed Jan 21 16:14:13 2015
# Frame Rate: 120.000 fps
#------------------------------------------------------
:FULLY-SPECIFIED
:DEGREES
313
root 18.555961 35.580612 -20.034862 -177.509502 -0.702783 -178.611319
Spine -16.825358 0.557853 -0.492923
Head 12.926371 -1.919704 1.753345
LeftShoulder 4.696401 -44.716105 12.326244
LeftArm 17.710033 11.234782 -20.121091
LeftForeArm 2.685438 -0.000000 -1.506874
LeftHand -8.259286 0.000000 -6.461469
LeftHandThumb1 -26.253704 0.000000 33.147579
RightShoulder 0.375316 2.783288 -10.531902
RightArm 31.167357 14.054845 22.697209
RightForeArm -34.583434 -0.000000 4.282769
RightHand -3.099147 -0.000000 11.972695
RightHandThumb1 -24.326973 -0.000000 -32.862282
LeftUpLeg 5.248024 9.391063 1.147063
LeftLeg -5.354778 -0.000000 0.000000
LeftFoot -21.160154 26.162501 -12.422493
LeftToeBase 26.699563 -0.000000 -0.000000
RightUpLeg 3.489097 -6.980263 1.419027
RightLeg -2.048020 -0.000000 0.000000
RightFoot -21.207835 -26.595061 14.145771
RightToeBase 23.724406 -0.000000 -0.000000
314
root 18.557724 35.583490 -20.012646 -177.708914 -0.676322 -178.634618
Spine -16.741066 0.590313 -0.471473
Head 13.152741 -1.862646 1.510438
LeftShoulder 5.413262 -45.197162 11.978099
LeftArm 18.416986 9.850791 -21.438250
LeftForeArm 2.520823 -0.000000 -1.672573
LeftHand -8.506534 0.000000 -6.385917
LeftHandThumb1 -26.253704 0.000000 33.147579
RightShoulder 0.700612 3.232098 -10.755042
RightArm 32.947500 13.571598 23.186952
RightForeArm -34.722124 0.000000 4.076154
RightHand -3.318125 -0.000000 11.681600
RightHandThumb1 -24.326973 -0.000000 -32.862282
LeftUpLeg 5.432948 9.350818 1.145329
LeftLeg -5.391278 -0.000000 0.000000
LeftFoot -21.096093 26.255812 -12.427092
LeftToeBase 26.665301 -0.000000 -0.000000
RightUpLeg 3.642326 -7.105888 1.370741
RightLeg -2.036629 -0.000000 0.000000
RightFoot -21.152802 -26.484734 14.090933
RightToeBase 23.772669 -0.000000 -0.000000
315
root 18.559956 35.585607 -19.990105 -177.910834 -0.665362 -178.629162
Spine -16.626693 0.584383 -0.420736
Head 13.328299 -1.833670 1.292450
LeftShoulder 6.048450 -45.601140 11.698681
LeftArm 19.198759 8.383600 -22.871330
LeftForeArm 2.059251 -0.000000 -1.958717
LeftHand -8.670288 -0.000000 -6.255204
LeftHandThumb1 -26.253704 0.000000 33.147579
RightShoulder 1.136093 3.684310 -10.993065
RightArm 34.525231 13.669406 24.069272
RightForeArm -34.955434 -0.000000 4.113404
RightHand -3.237315 0.000000 11.459297
RightHandThumb1 -24.326973 -0.000000 -32.862282
LeftUpLeg 5.573914 9.412191 1.185938
LeftLeg -5.337158 -0.000000 0.000000
LeftFoot -21.086356 26.199089 -12.401074
LeftToeBase 26.678968 -0.000000 -0.000000
RightUpLeg 3.798004 -7.187649 1.352976
RightLeg -2.024511 -0.000000 0.000000
RightFoot -21.114155 -26.424612 14.068235
RightToeBase 23.827600 -0.000000 -0.000000
316
root 18.559723 35.589470 -19.965986 -178.049491 -0.653024 -178.639861
Spine -16.596926 0.560953 -0.378464
Head 13.470491 -1.711918 1.134613
LeftShoulder 6.646083 -45.927010 11.438314
LeftArm 19.985929 6.969537 -24.365771
LeftForeArm 1.854740 0.000000 -2.210115
LeftHand -8.861019 -0.000000 -6.138756
LeftHandThumb1 -26.253704 0.000000 33.147579
RightShoulder 1.580748 4.358397 -11.260649
RightArm 35.991885 13.974324 25.383612
RightForeArm -35.209793 0.000000 4.269819
RightHand -2.963741 -0.000000 11.246781
RightHandThumb1 -24.326973 -0.000000 -32.862282
LeftUpLeg 5.655165 9.442995 1.189382
LeftLeg -5.301979 -0.000000 0.000000
LeftFoot -21.039196 26.199750 -12.377124
LeftToeBase 26.713387 -0.000000 -0.000000
RightUpLeg 3.889301 -7.337252 1.324051
RightLeg -2.016513 -0.000000 0.000000
RightFoot -21.043013 -26.314730 14.049036
RightToeBase 23.823840 -0.000000 -0.000000
